<mxfile host="65bd71144e">
    <diagram name="AWS EKS Architecture" id="rh-8kh5xCJhRo6gSsdiy">
        <mxGraphModel dx="2747" dy="2091" grid="1" gridSize="10" guides="1" tooltips="1" connect="1" arrows="1" fold="1" page="1" pageScale="1" pageWidth="850" pageHeight="1100" math="0" shadow="0">
            <root>
                <mxCell id="0"/>
                <mxCell id="1" parent="0"/>
                <mxCell id="TutvbiO1VOZdHe7GHNOU-56" value="VPC 10.0.0.0/16" style="sketch=0;outlineConnect=0;gradientColor=none;html=1;whiteSpace=wrap;fontSize=12;fontStyle=0;shape=mxgraph.aws4.group;grIcon=mxgraph.aws4.group_vpc;strokeColor=#6BB300;fillColor=none;verticalAlign=top;align=left;spacingLeft=30;fontColor=#879196;dashed=0;movable=1;resizable=1;rotatable=1;deletable=1;editable=1;locked=0;connectable=1;" parent="1" vertex="1">
                    <mxGeometry x="-108" y="-963.51" width="1588" height="1157" as="geometry"/>
                </mxCell>
                <mxCell id="Vmdeu8I34hhlEpoaFnQa-3" value="" style="rounded=0;arcSize=10;dashed=0;fillColor=none;gradientColor=none;strokeWidth=2;movable=0;resizable=0;rotatable=0;deletable=0;editable=0;locked=1;connectable=0;" parent="1" vertex="1">
                    <mxGeometry x="-220" y="-1010" width="1730" height="1223" as="geometry"/>
                </mxCell>
                <mxCell id="LVv6-rukdr9kL_Ci66FN-59" value="Availability Zone 2" style="fillColor=none;strokeColor=#147EBA;verticalAlign=top;fontStyle=0;fontColor=#147EBA;whiteSpace=wrap;html=1;rotation=-90;movable=1;resizable=1;rotatable=1;deletable=1;editable=1;locked=0;connectable=1;dashed=1;" parent="1" vertex="1">
                    <mxGeometry x="511.62" y="-803.76" width="380.28" height="1463.83" as="geometry"/>
                </mxCell>
                <mxCell id="28" value="Private subnet 2B&lt;div&gt;&lt;br&gt;&lt;/div&gt;" style="points=[[0,0],[0.25,0],[0.5,0],[0.75,0],[1,0],[1,0.25],[1,0.5],[1,0.75],[1,1],[0.75,1],[0.5,1],[0.25,1],[0,1],[0,0.75],[0,0.5],[0,0.25]];outlineConnect=0;gradientColor=none;html=1;whiteSpace=wrap;fontSize=12;fontStyle=0;container=0;pointerEvents=0;collapsible=0;recursiveResize=0;shape=mxgraph.aws4.group;grIcon=mxgraph.aws4.group_security_group;grStroke=0;strokeColor=#00A4A6;fillColor=#E6F6F7;verticalAlign=top;align=left;spacingLeft=30;fontColor=#147EBA;dashed=0;movable=1;resizable=1;rotatable=1;deletable=1;editable=1;locked=0;connectable=1;" vertex="1" parent="1">
                    <mxGeometry x="1180" y="-262.01" width="210" height="360" as="geometry"/>
                </mxCell>
                <mxCell id="Vmdeu8I34hhlEpoaFnQa-18" value="" style="rounded=0;whiteSpace=wrap;html=1;movable=1;resizable=1;rotatable=1;deletable=1;editable=1;locked=0;connectable=1;" parent="1" vertex="1">
                    <mxGeometry x="700" y="-910" width="410" height="1060.94" as="geometry"/>
                </mxCell>
                <mxCell id="LVv6-rukdr9kL_Ci66FN-58" value="Availability Zone 1" style="fillColor=none;strokeColor=#147EBA;verticalAlign=top;fontStyle=0;fontColor=#147EBA;whiteSpace=wrap;html=1;rotation=-90;movable=1;resizable=1;rotatable=1;deletable=1;editable=1;locked=0;connectable=1;dashed=1;" parent="1" vertex="1">
                    <mxGeometry x="492.36" y="-1425.08" width="389.72" height="1503.72" as="geometry"/>
                </mxCell>
                <mxCell id="LVv6-rukdr9kL_Ci66FN-23" value="Private subnet 1A&lt;div&gt;&lt;br&gt;&lt;/div&gt;" style="points=[[0,0],[0.25,0],[0.5,0],[0.75,0],[1,0],[1,0.25],[1,0.5],[1,0.75],[1,1],[0.75,1],[0.5,1],[0.25,1],[0,1],[0,0.75],[0,0.5],[0,0.25]];outlineConnect=0;gradientColor=none;html=1;whiteSpace=wrap;fontSize=12;fontStyle=0;container=1;pointerEvents=0;collapsible=0;recursiveResize=0;shape=mxgraph.aws4.group;grIcon=mxgraph.aws4.group_security_group;grStroke=0;strokeColor=#00A4A6;fillColor=#E6F6F7;verticalAlign=top;align=left;spacingLeft=30;fontColor=#147EBA;dashed=0;movable=1;resizable=1;rotatable=1;deletable=1;editable=1;locked=0;connectable=1;" parent="1" vertex="1">
                    <mxGeometry x="802" y="-853.92" width="268" height="360" as="geometry"/>
                </mxCell>
                <mxCell id="Vmdeu8I34hhlEpoaFnQa-1" value="User" style="shape=actor;whiteSpace=wrap;html=1;movable=1;resizable=1;rotatable=1;deletable=1;editable=1;locked=0;connectable=1;" parent="1" vertex="1">
                    <mxGeometry x="-800" y="-550" width="80" height="91" as="geometry"/>
                </mxCell>
                <mxCell id="Vmdeu8I34hhlEpoaFnQa-2" value="Route 53" style="sketch=0;points=[[0,0,0],[0.25,0,0],[0.5,0,0],[0.75,0,0],[1,0,0],[0,1,0],[0.25,1,0],[0.5,1,0],[0.75,1,0],[1,1,0],[0,0.25,0],[0,0.5,0],[0,0.75,0],[1,0.25,0],[1,0.5,0],[1,0.75,0]];outlineConnect=0;fontColor=#232F3E;fillColor=#8C4FFF;strokeColor=#ffffff;dashed=0;verticalLabelPosition=bottom;verticalAlign=top;align=center;html=1;fontSize=12;fontStyle=0;aspect=fixed;shape=mxgraph.aws4.resourceIcon;resIcon=mxgraph.aws4.route_53;movable=1;resizable=1;rotatable=1;deletable=1;editable=1;locked=0;connectable=1;" parent="1" vertex="1">
                    <mxGeometry x="-560" y="-750" width="78" height="78" as="geometry"/>
                </mxCell>
                <mxCell id="Vmdeu8I34hhlEpoaFnQa-5" value="" style="outlineConnect=0;dashed=0;verticalLabelPosition=bottom;verticalAlign=top;align=center;html=1;shape=mxgraph.aws3.cloud_2;fillColor=#F58534;gradientColor=none;movable=0;resizable=0;rotatable=0;deletable=0;editable=0;locked=1;connectable=0;" parent="1" vertex="1">
                    <mxGeometry x="542" y="-1033.51" width="75" height="75" as="geometry"/>
                </mxCell>
                <mxCell id="Vmdeu8I34hhlEpoaFnQa-17" value="" style="sketch=0;points=[[0,0,0],[0.25,0,0],[0.5,0,0],[0.75,0,0],[1,0,0],[0,1,0],[0.25,1,0],[0.5,1,0],[0.75,1,0],[1,1,0],[0,0.25,0],[0,0.5,0],[0,0.75,0],[1,0.25,0],[1,0.5,0],[1,0.75,0]];outlineConnect=0;fontColor=#232F3E;fillColor=#ED7100;strokeColor=#ffffff;dashed=0;verticalLabelPosition=bottom;verticalAlign=top;align=center;html=1;fontSize=12;fontStyle=0;aspect=fixed;shape=mxgraph.aws4.resourceIcon;resIcon=mxgraph.aws4.eks;movable=0;resizable=0;rotatable=0;deletable=0;editable=0;locked=1;connectable=0;" parent="1" vertex="1">
                    <mxGeometry x="712" y="-906.51" width="50" height="50" as="geometry"/>
                </mxCell>
                <mxCell id="Vmdeu8I34hhlEpoaFnQa-19" value="Amazon EKS Cluster" style="text;html=1;align=center;verticalAlign=middle;resizable=0;points=[];autosize=1;strokeColor=none;fillColor=none;movable=0;rotatable=0;deletable=0;editable=0;locked=1;connectable=0;" parent="1" vertex="1">
                    <mxGeometry x="762" y="-906.51" width="140" height="30" as="geometry"/>
                </mxCell>
                <mxCell id="Vmdeu8I34hhlEpoaFnQa-23" style="edgeStyle=orthogonalEdgeStyle;rounded=0;orthogonalLoop=1;jettySize=auto;html=1;movable=1;resizable=1;rotatable=1;deletable=1;editable=1;locked=0;connectable=1;" parent="1" source="Vmdeu8I34hhlEpoaFnQa-1" target="2" edge="1">
                    <mxGeometry relative="1" as="geometry">
                        <mxPoint x="-590" y="-450" as="targetPoint"/>
                        <Array as="points">
                            <mxPoint x="-680" y="-473"/>
                            <mxPoint x="-680" y="-473"/>
                        </Array>
                    </mxGeometry>
                </mxCell>
                <mxCell id="Cl8BHOoKjIoHekQTflMq-29" value="HTTPS" style="edgeLabel;html=1;align=center;verticalAlign=middle;resizable=1;points=[];movable=1;rotatable=1;deletable=1;editable=1;locked=0;connectable=1;" parent="Vmdeu8I34hhlEpoaFnQa-23" vertex="1" connectable="0">
                    <mxGeometry x="-0.2308" y="-5" relative="1" as="geometry">
                        <mxPoint x="18" y="9" as="offset"/>
                    </mxGeometry>
                </mxCell>
                <mxCell id="Cl8BHOoKjIoHekQTflMq-5" style="edgeStyle=orthogonalEdgeStyle;rounded=0;orthogonalLoop=1;jettySize=auto;html=1;movable=0;resizable=0;rotatable=0;deletable=0;editable=0;locked=1;connectable=0;" parent="1" source="ue1RAT0j10rb1X5RN0Ns-1" target="Cl8BHOoKjIoHekQTflMq-4" edge="1">
                    <mxGeometry relative="1" as="geometry"/>
                </mxCell>
                <mxCell id="-iypPXUo0KvEvjQ7XJEe-60" value="AWS WAF" style="sketch=0;points=[[0,0,0],[0.25,0,0],[0.5,0,0],[0.75,0,0],[1,0,0],[0,1,0],[0.25,1,0],[0.5,1,0],[0.75,1,0],[1,1,0],[0,0.25,0],[0,0.5,0],[0,0.75,0],[1,0.25,0],[1,0.5,0],[1,0.75,0]];outlineConnect=0;fontColor=#232F3E;fillColor=#DD344C;strokeColor=#ffffff;dashed=0;verticalLabelPosition=bottom;verticalAlign=top;align=center;html=1;fontSize=12;fontStyle=0;aspect=fixed;shape=mxgraph.aws4.resourceIcon;resIcon=mxgraph.aws4.waf;movable=1;resizable=1;rotatable=1;deletable=1;editable=1;locked=0;connectable=1;" parent="1" vertex="1">
                    <mxGeometry x="-410" y="-650" width="78" height="78" as="geometry"/>
                </mxCell>
                <mxCell id="-iypPXUo0KvEvjQ7XJEe-61" style="edgeStyle=orthogonalEdgeStyle;rounded=0;orthogonalLoop=1;jettySize=auto;html=1;entryX=0.5;entryY=0;entryDx=0;entryDy=0;entryPerimeter=0;movable=1;resizable=1;rotatable=1;deletable=1;editable=1;locked=0;connectable=1;" parent="1" source="Vmdeu8I34hhlEpoaFnQa-2" target="-iypPXUo0KvEvjQ7XJEe-60" edge="1">
                    <mxGeometry relative="1" as="geometry"/>
                </mxCell>
                <mxCell id="jZCDp3kxoupZj0aG2XI8-20" value="Public subnet 1A" style="points=[[0,0],[0.25,0],[0.5,0],[0.75,0],[1,0],[1,0.25],[1,0.5],[1,0.75],[1,1],[0.75,1],[0.5,1],[0.25,1],[0,1],[0,0.75],[0,0.5],[0,0.25]];outlineConnect=0;gradientColor=none;html=1;whiteSpace=wrap;fontSize=12;fontStyle=0;container=1;pointerEvents=0;collapsible=0;recursiveResize=0;shape=mxgraph.aws4.group;grIcon=mxgraph.aws4.group_security_group;grStroke=0;strokeColor=#7AA116;fillColor=#F2F6E8;verticalAlign=top;align=left;spacingLeft=30;fontColor=#248814;dashed=0;movable=1;resizable=1;rotatable=1;deletable=1;editable=1;locked=0;connectable=1;" parent="1" vertex="1">
                    <mxGeometry x="120" y="-853.92" width="190" height="360.41" as="geometry"/>
                </mxCell>
                <mxCell id="jZCDp3kxoupZj0aG2XI8-23" value="NAT Gateway 1" style="sketch=0;outlineConnect=0;fontColor=#232F3E;gradientColor=none;fillColor=#8C4FFF;strokeColor=none;dashed=0;verticalLabelPosition=bottom;verticalAlign=top;align=center;html=1;fontSize=12;fontStyle=0;aspect=fixed;pointerEvents=1;shape=mxgraph.aws4.nat_gateway;movable=1;resizable=1;rotatable=1;deletable=1;editable=1;locked=0;connectable=1;" parent="jZCDp3kxoupZj0aG2XI8-20" vertex="1">
                    <mxGeometry x="59" y="133.92000000000002" width="78" height="78" as="geometry"/>
                </mxCell>
                <mxCell id="jZCDp3kxoupZj0aG2XI8-22" value="Public subnet 1B" style="points=[[0,0],[0.25,0],[0.5,0],[0.75,0],[1,0],[1,0.25],[1,0.5],[1,0.75],[1,1],[0.75,1],[0.5,1],[0.25,1],[0,1],[0,0.75],[0,0.5],[0,0.25]];outlineConnect=0;gradientColor=none;html=1;whiteSpace=wrap;fontSize=12;fontStyle=0;container=1;pointerEvents=0;collapsible=0;recursiveResize=0;shape=mxgraph.aws4.group;grIcon=mxgraph.aws4.group_security_group;grStroke=0;strokeColor=#7AA116;fillColor=#F2F6E8;verticalAlign=top;align=left;spacingLeft=30;fontColor=#248814;dashed=0;movable=1;resizable=1;rotatable=1;deletable=1;editable=1;locked=0;connectable=1;" parent="1" vertex="1">
                    <mxGeometry x="120" y="-243.51" width="190" height="340" as="geometry"/>
                </mxCell>
                <mxCell id="jZCDp3kxoupZj0aG2XI8-24" value="NAT Gateway 2" style="sketch=0;outlineConnect=0;fontColor=#232F3E;gradientColor=none;fillColor=#8C4FFF;strokeColor=none;dashed=0;verticalLabelPosition=bottom;verticalAlign=top;align=center;html=1;fontSize=12;fontStyle=0;aspect=fixed;pointerEvents=1;shape=mxgraph.aws4.nat_gateway;movable=1;resizable=1;rotatable=1;deletable=1;editable=1;locked=0;connectable=1;" parent="jZCDp3kxoupZj0aG2XI8-22" vertex="1">
                    <mxGeometry x="59" y="140.49999999999994" width="78" height="78" as="geometry"/>
                </mxCell>
                <mxCell id="jZCDp3kxoupZj0aG2XI8-26" style="edgeStyle=orthogonalEdgeStyle;rounded=0;orthogonalLoop=1;jettySize=auto;html=1;entryX=0.03;entryY=0.223;entryDx=0;entryDy=0;entryPerimeter=0;movable=1;resizable=1;rotatable=1;deletable=1;editable=1;locked=0;connectable=1;" parent="1" source="ue1RAT0j10rb1X5RN0Ns-1" target="LVv6-rukdr9kL_Ci66FN-58" edge="1">
                    <mxGeometry relative="1" as="geometry"/>
                </mxCell>
                <mxCell id="jZCDp3kxoupZj0aG2XI8-27" style="edgeStyle=orthogonalEdgeStyle;rounded=0;orthogonalLoop=1;jettySize=auto;html=1;entryX=0.997;entryY=0.204;entryDx=0;entryDy=0;entryPerimeter=0;movable=1;resizable=1;rotatable=1;deletable=1;editable=1;locked=0;connectable=1;" parent="1" source="ue1RAT0j10rb1X5RN0Ns-1" target="LVv6-rukdr9kL_Ci66FN-59" edge="1">
                    <mxGeometry relative="1" as="geometry"/>
                </mxCell>
                <mxCell id="jZCDp3kxoupZj0aG2XI8-28" value="" style="endArrow=classic;html=1;rounded=0;movable=1;resizable=1;rotatable=1;deletable=1;editable=1;locked=0;connectable=1;exitX=0;exitY=0.5;exitDx=0;exitDy=0;" parent="1" source="LVv6-rukdr9kL_Ci66FN-23" target="jZCDp3kxoupZj0aG2XI8-23" edge="1">
                    <mxGeometry width="50" height="50" relative="1" as="geometry">
                        <mxPoint x="800" y="-660" as="sourcePoint"/>
                        <mxPoint x="312" y="-423.51" as="targetPoint"/>
                    </mxGeometry>
                </mxCell>
                <mxCell id="Cl8BHOoKjIoHekQTflMq-2" value="Route Table: Private Subnet 1A → 0.0.0.0/0 → NGW 1" style="edgeLabel;html=1;align=center;verticalAlign=middle;resizable=1;points=[];movable=1;rotatable=1;deletable=1;editable=1;locked=0;connectable=1;" parent="jZCDp3kxoupZj0aG2XI8-28" vertex="1" connectable="0">
                    <mxGeometry x="-0.0371" relative="1" as="geometry">
                        <mxPoint as="offset"/>
                    </mxGeometry>
                </mxCell>
                <mxCell id="jZCDp3kxoupZj0aG2XI8-29" value="" style="endArrow=classic;html=1;rounded=0;movable=1;resizable=1;rotatable=1;deletable=1;editable=1;locked=0;connectable=1;" parent="1" target="jZCDp3kxoupZj0aG2XI8-24" edge="1">
                    <mxGeometry width="50" height="50" relative="1" as="geometry">
                        <mxPoint x="790" y="-60" as="sourcePoint"/>
                        <mxPoint x="312" y="-423.51" as="targetPoint"/>
                    </mxGeometry>
                </mxCell>
                <mxCell id="Cl8BHOoKjIoHekQTflMq-3" value="Route Table: Private Subnet 1B → 0.0.0.0/0 → NGW 2" style="edgeLabel;html=1;align=center;verticalAlign=middle;resizable=1;points=[];movable=1;rotatable=1;deletable=1;editable=1;locked=0;connectable=1;" parent="jZCDp3kxoupZj0aG2XI8-29" vertex="1" connectable="0">
                    <mxGeometry x="0.185" relative="1" as="geometry">
                        <mxPoint x="-1" as="offset"/>
                    </mxGeometry>
                </mxCell>
                <mxCell id="jZCDp3kxoupZj0aG2XI8-31" value="" style="edgeStyle=orthogonalEdgeStyle;rounded=0;orthogonalLoop=1;jettySize=auto;html=1;movable=1;resizable=1;rotatable=1;deletable=1;editable=1;locked=0;connectable=1;" parent="1" source="2" target="jZCDp3kxoupZj0aG2XI8-30" edge="1">
                    <mxGeometry relative="1" as="geometry">
                        <mxPoint x="-560" y="-332.01" as="sourcePoint"/>
                        <mxPoint x="-330" y="-340" as="targetPoint"/>
                        <Array as="points">
                            <mxPoint x="-520" y="-382"/>
                        </Array>
                    </mxGeometry>
                </mxCell>
                <mxCell id="jZCDp3kxoupZj0aG2XI8-30" value="Internet Gateway" style="sketch=0;outlineConnect=0;fontColor=#232F3E;gradientColor=none;fillColor=#8C4FFF;strokeColor=none;dashed=0;verticalLabelPosition=bottom;verticalAlign=top;align=center;html=1;fontSize=12;fontStyle=0;aspect=fixed;pointerEvents=1;shape=mxgraph.aws4.internet_gateway;movable=1;resizable=1;rotatable=1;deletable=1;editable=1;locked=0;connectable=1;" parent="1" vertex="1">
                    <mxGeometry x="-140" y="-418.53" width="78" height="78" as="geometry"/>
                </mxCell>
                <mxCell id="jZCDp3kxoupZj0aG2XI8-32" style="edgeStyle=orthogonalEdgeStyle;rounded=1;orthogonalLoop=1;jettySize=auto;html=1;movable=0;resizable=0;rotatable=0;deletable=0;editable=0;locked=1;connectable=0;curved=0;" parent="1" source="jZCDp3kxoupZj0aG2XI8-23" target="jZCDp3kxoupZj0aG2XI8-30" edge="1">
                    <mxGeometry relative="1" as="geometry"/>
                </mxCell>
                <mxCell id="jZCDp3kxoupZj0aG2XI8-33" style="edgeStyle=orthogonalEdgeStyle;rounded=1;orthogonalLoop=1;jettySize=auto;html=1;movable=1;resizable=1;rotatable=1;deletable=1;editable=1;locked=0;connectable=1;curved=0;" parent="1" source="jZCDp3kxoupZj0aG2XI8-24" target="jZCDp3kxoupZj0aG2XI8-30" edge="1">
                    <mxGeometry relative="1" as="geometry">
                        <Array as="points">
                            <mxPoint x="-107" y="-50"/>
                        </Array>
                    </mxGeometry>
                </mxCell>
                <mxCell id="Cl8BHOoKjIoHekQTflMq-4" value="AWS ALB &lt;br&gt;Ingress Controller" style="sketch=0;outlineConnect=0;fontColor=#232F3E;gradientColor=none;fillColor=#8C4FFF;strokeColor=none;dashed=0;verticalLabelPosition=bottom;verticalAlign=top;align=center;html=1;fontSize=12;fontStyle=0;aspect=fixed;pointerEvents=1;shape=mxgraph.aws4.network_load_balancer;movable=0;resizable=0;rotatable=0;deletable=0;editable=0;locked=1;connectable=0;" parent="1" vertex="1">
                    <mxGeometry x="728" y="-413.51000000000005" width="64" height="64" as="geometry"/>
                </mxCell>
                <mxCell id="Cl8BHOoKjIoHekQTflMq-6" style="edgeStyle=orthogonalEdgeStyle;rounded=1;orthogonalLoop=1;jettySize=auto;html=1;entryX=0.458;entryY=0.472;entryDx=0;entryDy=0;entryPerimeter=0;curved=0;movable=0;resizable=0;rotatable=0;deletable=0;editable=0;locked=1;connectable=0;" parent="1" source="Cl8BHOoKjIoHekQTflMq-4" edge="1">
                    <mxGeometry relative="1" as="geometry">
                        <mxPoint x="937.9359999999997" y="-649.998" as="targetPoint"/>
                    </mxGeometry>
                </mxCell>
                <mxCell id="Cl8BHOoKjIoHekQTflMq-14" value="Routes &lt;code data-end=&quot;1684&quot; data-start=&quot;1676&quot;&gt;/api/*&lt;/code&gt; traffic" style="edgeLabel;html=1;align=center;verticalAlign=middle;resizable=0;points=[];movable=0;rotatable=0;deletable=0;editable=0;locked=1;connectable=0;" parent="Cl8BHOoKjIoHekQTflMq-6" vertex="1" connectable="0">
                    <mxGeometry x="0.1739" relative="1" as="geometry">
                        <mxPoint as="offset"/>
                    </mxGeometry>
                </mxCell>
                <mxCell id="Cl8BHOoKjIoHekQTflMq-7" style="edgeStyle=orthogonalEdgeStyle;rounded=1;orthogonalLoop=1;jettySize=auto;html=1;curved=0;movable=0;resizable=0;rotatable=0;deletable=0;editable=0;locked=1;connectable=0;" parent="1" source="Cl8BHOoKjIoHekQTflMq-4" edge="1">
                    <mxGeometry relative="1" as="geometry">
                        <mxPoint x="990" y="-90" as="targetPoint"/>
                    </mxGeometry>
                </mxCell>
                <mxCell id="Cl8BHOoKjIoHekQTflMq-15" value="Routes &lt;code data-end=&quot;1684&quot; data-start=&quot;1676&quot;&gt;/api/*&lt;/code&gt; traffic" style="edgeLabel;html=1;align=center;verticalAlign=middle;resizable=0;points=[];movable=0;rotatable=0;deletable=0;editable=0;locked=1;connectable=0;" parent="Cl8BHOoKjIoHekQTflMq-7" vertex="1" connectable="0">
                    <mxGeometry x="0.1204" relative="1" as="geometry">
                        <mxPoint as="offset"/>
                    </mxGeometry>
                </mxCell>
                <mxCell id="Cl8BHOoKjIoHekQTflMq-8" style="edgeStyle=orthogonalEdgeStyle;rounded=1;orthogonalLoop=1;jettySize=auto;html=1;entryX=0.098;entryY=0.472;entryDx=0;entryDy=0;entryPerimeter=0;curved=0;movable=1;resizable=1;rotatable=1;deletable=1;editable=1;locked=0;connectable=1;" parent="1" source="Cl8BHOoKjIoHekQTflMq-4" edge="1">
                    <mxGeometry relative="1" as="geometry">
                        <Array as="points">
                            <mxPoint x="880" y="-400"/>
                        </Array>
                        <mxPoint x="868.8160000000003" y="-649.998" as="targetPoint"/>
                    </mxGeometry>
                </mxCell>
                <mxCell id="Cl8BHOoKjIoHekQTflMq-10" value="Routes &lt;code data-end=&quot;1610&quot; data-start=&quot;1607&quot;&gt;/&lt;/code&gt; traffic" style="edgeLabel;html=1;align=center;verticalAlign=middle;resizable=1;points=[];movable=1;rotatable=1;deletable=1;editable=1;locked=0;connectable=1;" parent="Cl8BHOoKjIoHekQTflMq-8" vertex="1" connectable="0">
                    <mxGeometry x="-0.1242" y="-3" relative="1" as="geometry">
                        <mxPoint y="1" as="offset"/>
                    </mxGeometry>
                </mxCell>
                <mxCell id="Cl8BHOoKjIoHekQTflMq-9" style="edgeStyle=orthogonalEdgeStyle;rounded=1;orthogonalLoop=1;jettySize=auto;html=1;entryX=0.097;entryY=0.383;entryDx=0;entryDy=0;entryPerimeter=0;curved=0;movable=0;resizable=0;rotatable=0;deletable=0;editable=0;locked=1;connectable=0;" parent="1" source="Cl8BHOoKjIoHekQTflMq-4" edge="1">
                    <mxGeometry relative="1" as="geometry">
                        <Array as="points">
                            <mxPoint x="880" y="-370"/>
                        </Array>
                        <mxPoint x="879.9799999999996" y="-79.90344000000005" as="targetPoint"/>
                    </mxGeometry>
                </mxCell>
                <mxCell id="Cl8BHOoKjIoHekQTflMq-17" value="Routes &lt;code data-end=&quot;1610&quot; data-start=&quot;1607&quot;&gt;/&lt;/code&gt; traffic" style="edgeLabel;html=1;align=center;verticalAlign=middle;resizable=0;points=[];movable=0;rotatable=0;deletable=0;editable=0;locked=1;connectable=0;" parent="Cl8BHOoKjIoHekQTflMq-9" vertex="1" connectable="0">
                    <mxGeometry x="-0.1778" y="2" relative="1" as="geometry">
                        <mxPoint as="offset"/>
                    </mxGeometry>
                </mxCell>
                <mxCell id="5" value="" style="edgeStyle=none;html=1;" edge="1" parent="1" source="2" target="-iypPXUo0KvEvjQ7XJEe-60">
                    <mxGeometry relative="1" as="geometry">
                        <Array as="points"/>
                    </mxGeometry>
                </mxCell>
                <mxCell id="2" value="Cloudfront" style="outlineConnect=0;dashed=0;verticalLabelPosition=bottom;verticalAlign=top;align=center;html=1;shape=mxgraph.aws3.cloudfront;fillColor=#F58536;gradientColor=none;" vertex="1" parent="1">
                    <mxGeometry x="-558.5" y="-520" width="76.5" height="93" as="geometry"/>
                </mxCell>
                <mxCell id="4" style="edgeStyle=none;html=1;exitX=0.5;exitY=1;exitDx=0;exitDy=0;exitPerimeter=0;entryX=0.5;entryY=0;entryDx=0;entryDy=0;entryPerimeter=0;" edge="1" parent="1" source="Vmdeu8I34hhlEpoaFnQa-2" target="2">
                    <mxGeometry relative="1" as="geometry"/>
                </mxCell>
                <mxCell id="6" value="(optional)&lt;div&gt;Cognito&lt;/div&gt;" style="sketch=0;points=[[0,0,0],[0.25,0,0],[0.5,0,0],[0.75,0,0],[1,0,0],[0,1,0],[0.25,1,0],[0.5,1,0],[0.75,1,0],[1,1,0],[0,0.25,0],[0,0.5,0],[0,0.75,0],[1,0.25,0],[1,0.5,0],[1,0.75,0]];outlineConnect=0;fontColor=#232F3E;fillColor=#DD344C;strokeColor=#ffffff;dashed=0;verticalLabelPosition=bottom;verticalAlign=top;align=center;html=1;fontSize=12;fontStyle=0;aspect=fixed;shape=mxgraph.aws4.resourceIcon;resIcon=mxgraph.aws4.cognito;" vertex="1" parent="1">
                    <mxGeometry x="-730" y="-750" width="78" height="78" as="geometry"/>
                </mxCell>
                <mxCell id="7" value="Secrets Manager&lt;div&gt;&lt;br&gt;&lt;/div&gt;" style="sketch=0;points=[[0,0,0],[0.25,0,0],[0.5,0,0],[0.75,0,0],[1,0,0],[0,1,0],[0.25,1,0],[0.5,1,0],[0.75,1,0],[1,1,0],[0,0.25,0],[0,0.5,0],[0,0.75,0],[1,0.25,0],[1,0.5,0],[1,0.75,0]];outlineConnect=0;fontColor=#232F3E;fillColor=#DD344C;strokeColor=#ffffff;dashed=0;verticalLabelPosition=bottom;verticalAlign=top;align=center;html=1;fontSize=12;fontStyle=0;aspect=fixed;shape=mxgraph.aws4.resourceIcon;resIcon=mxgraph.aws4.secrets_manager;" vertex="1" parent="1">
                    <mxGeometry x="-510" y="-290" width="78" height="78" as="geometry"/>
                </mxCell>
                <mxCell id="8" value="KMS" style="sketch=0;points=[[0,0,0],[0.25,0,0],[0.5,0,0],[0.75,0,0],[1,0,0],[0,1,0],[0.25,1,0],[0.5,1,0],[0.75,1,0],[1,1,0],[0,0.25,0],[0,0.5,0],[0,0.75,0],[1,0.25,0],[1,0.5,0],[1,0.75,0]];outlineConnect=0;fontColor=#232F3E;fillColor=#DD344C;strokeColor=#ffffff;dashed=0;verticalLabelPosition=bottom;verticalAlign=top;align=center;html=1;fontSize=12;fontStyle=0;aspect=fixed;shape=mxgraph.aws4.resourceIcon;resIcon=mxgraph.aws4.key_management_service;" vertex="1" parent="1">
                    <mxGeometry x="-380" y="-290" width="78" height="78" as="geometry"/>
                </mxCell>
                <mxCell id="13" value="Private subnet 2&lt;span style=&quot;background-color: transparent;&quot;&gt;A&lt;/span&gt;&lt;div&gt;&lt;div&gt;&lt;br&gt;&lt;/div&gt;&lt;/div&gt;" style="points=[[0,0],[0.25,0],[0.5,0],[0.75,0],[1,0],[1,0.25],[1,0.5],[1,0.75],[1,1],[0.75,1],[0.5,1],[0.25,1],[0,1],[0,0.75],[0,0.5],[0,0.25]];outlineConnect=0;gradientColor=none;html=1;whiteSpace=wrap;fontSize=12;fontStyle=0;container=1;pointerEvents=0;collapsible=0;recursiveResize=0;shape=mxgraph.aws4.group;grIcon=mxgraph.aws4.group_security_group;grStroke=0;strokeColor=#00A4A6;fillColor=#E6F6F7;verticalAlign=top;align=left;spacingLeft=30;fontColor=#147EBA;dashed=0;movable=1;resizable=1;rotatable=1;deletable=1;editable=1;locked=0;connectable=1;" vertex="1" parent="1">
                    <mxGeometry x="1150" y="-856.51" width="230" height="360" as="geometry"/>
                </mxCell>
                <mxCell id="jZCDp3kxoupZj0aG2XI8-7" value="Amazon RDS&lt;br&gt;(PostgreSQL)&lt;br&gt;Primary" style="sketch=0;points=[[0,0,0],[0.25,0,0],[0.5,0,0],[0.75,0,0],[1,0,0],[0,1,0],[0.25,1,0],[0.5,1,0],[0.75,1,0],[1,1,0],[0,0.25,0],[0,0.5,0],[0,0.75,0],[1,0.25,0],[1,0.5,0],[1,0.75,0]];outlineConnect=0;fontColor=#232F3E;fillColor=#C925D1;strokeColor=#ffffff;dashed=0;verticalLabelPosition=bottom;verticalAlign=top;align=center;html=1;fontSize=12;fontStyle=0;aspect=fixed;shape=mxgraph.aws4.resourceIcon;resIcon=mxgraph.aws4.rds;movable=1;resizable=1;rotatable=1;deletable=1;editable=1;locked=0;connectable=1;" parent="13" vertex="1">
                    <mxGeometry x="82.5" y="157.01" width="49.5" height="49.5" as="geometry"/>
                </mxCell>
                <mxCell id="37" value="(optional)&lt;br&gt;Read Replica" style="sketch=0;points=[[0,0,0],[0.25,0,0],[0.5,0,0],[0.75,0,0],[1,0,0],[0,1,0],[0.25,1,0],[0.5,1,0],[0.75,1,0],[1,1,0],[0,0.25,0],[0,0.5,0],[0,0.75,0],[1,0.25,0],[1,0.5,0],[1,0.75,0]];outlineConnect=0;fontColor=#232F3E;fillColor=#C925D1;strokeColor=#ffffff;dashed=0;verticalLabelPosition=bottom;verticalAlign=top;align=center;html=1;fontSize=12;fontStyle=0;aspect=fixed;shape=mxgraph.aws4.resourceIcon;resIcon=mxgraph.aws4.rds;movable=1;resizable=1;rotatable=1;deletable=1;editable=1;locked=0;connectable=1;" vertex="1" parent="13">
                    <mxGeometry x="82.5" y="36.50999999999999" width="49.5" height="49.5" as="geometry"/>
                </mxCell>
                <mxCell id="LVv6-rukdr9kL_Ci66FN-38" value="Private subnet 1B&lt;div&gt;&lt;br&gt;&lt;/div&gt;" style="points=[[0,0],[0.25,0],[0.5,0],[0.75,0],[1,0],[1,0.25],[1,0.5],[1,0.75],[1,1],[0.75,1],[0.5,1],[0.25,1],[0,1],[0,0.75],[0,0.5],[0,0.25]];outlineConnect=0;gradientColor=none;html=1;whiteSpace=wrap;fontSize=12;fontStyle=0;container=0;pointerEvents=0;collapsible=0;recursiveResize=0;shape=mxgraph.aws4.group;grIcon=mxgraph.aws4.group_security_group;grStroke=0;strokeColor=#00A4A6;fillColor=#E6F6F7;verticalAlign=top;align=left;spacingLeft=30;fontColor=#147EBA;dashed=0;movable=1;resizable=1;rotatable=1;deletable=1;editable=1;locked=0;connectable=1;" parent="1" vertex="1">
                    <mxGeometry x="792" y="-252.01" width="278" height="382.01" as="geometry"/>
                </mxCell>
                <mxCell id="jZCDp3kxoupZj0aG2XI8-8" style="edgeStyle=orthogonalEdgeStyle;rounded=0;orthogonalLoop=1;jettySize=auto;html=1;movable=1;resizable=1;rotatable=1;deletable=1;editable=1;locked=0;connectable=1;" parent="1" source="LVv6-rukdr9kL_Ci66FN-27" target="jZCDp3kxoupZj0aG2XI8-7" edge="1">
                    <mxGeometry relative="1" as="geometry"/>
                </mxCell>
                <mxCell id="jZCDp3kxoupZj0aG2XI8-14" value="" style="endArrow=classic;html=1;rounded=0;exitX=0.5;exitY=1;exitDx=0;exitDy=0;exitPerimeter=0;entryX=0.5;entryY=0;entryDx=0;entryDy=0;entryPerimeter=0;movable=0;resizable=0;rotatable=0;deletable=0;editable=0;locked=1;connectable=0;" parent="1" source="jZCDp3kxoupZj0aG2XI8-7" target="Sw0wEQEiZSazHrTpmJdk-6" edge="1">
                    <mxGeometry relative="1" as="geometry">
                        <mxPoint x="862" y="-163.51" as="sourcePoint"/>
                        <mxPoint x="962" y="-163.51" as="targetPoint"/>
                    </mxGeometry>
                </mxCell>
                <mxCell id="jZCDp3kxoupZj0aG2XI8-15" value="Synchronous&lt;br&gt;Replication" style="edgeLabel;resizable=0;html=1;;align=center;verticalAlign=middle;movable=0;rotatable=0;deletable=0;editable=0;locked=1;connectable=0;" parent="jZCDp3kxoupZj0aG2XI8-14" connectable="0" vertex="1">
                    <mxGeometry relative="1" as="geometry"/>
                </mxCell>
                <mxCell id="LVv6-rukdr9kL_Ci66FN-55" value="Auto Scaling group" style="points=[[0,0],[0.25,0],[0.5,0],[0.75,0],[1,0],[1,0.25],[1,0.5],[1,0.75],[1,1],[0.75,1],[0.5,1],[0.25,1],[0,1],[0,0.75],[0,0.5],[0,0.25]];outlineConnect=0;gradientColor=none;html=1;whiteSpace=wrap;fontSize=12;fontStyle=0;container=1;pointerEvents=0;collapsible=0;recursiveResize=0;shape=mxgraph.aws4.groupCenter;grIcon=mxgraph.aws4.group_auto_scaling_group;grStroke=1;strokeColor=#D86613;fillColor=none;verticalAlign=top;align=center;fontColor=#D86613;spacingTop=25;movable=1;resizable=1;rotatable=1;deletable=1;editable=1;locked=0;connectable=1;" parent="1" vertex="1">
                    <mxGeometry x="832" y="-822.01" width="230" height="920" as="geometry"/>
                </mxCell>
                <mxCell id="LVv6-rukdr9kL_Ci66FN-27" value="Backend&lt;br&gt;(Python/Flask)" style="aspect=fixed;sketch=0;html=1;dashed=0;whitespace=wrap;verticalLabelPosition=bottom;verticalAlign=top;fillColor=#2875E2;strokeColor=#ffffff;points=[[0.005,0.63,0],[0.1,0.2,0],[0.9,0.2,0],[0.5,0,0],[0.995,0.63,0],[0.72,0.99,0],[0.5,1,0],[0.28,0.99,0]];shape=mxgraph.kubernetes.icon2;prIcon=node;movable=0;resizable=0;rotatable=0;deletable=0;editable=0;locked=1;connectable=0;" parent="LVv6-rukdr9kL_Ci66FN-55" vertex="1">
                    <mxGeometry x="140.00000000000006" y="128.50000000000003" width="40.62" height="39" as="geometry"/>
                </mxCell>
                <mxCell id="LVv6-rukdr9kL_Ci66FN-25" value="&lt;font color=&quot;#232f3e&quot;&gt;Frontend SVC&lt;br&gt;(React)&lt;/font&gt;" style="aspect=fixed;sketch=0;html=1;dashed=0;whitespace=wrap;verticalLabelPosition=bottom;verticalAlign=top;fillColor=#2875E2;strokeColor=#ffffff;points=[[0.005,0.63,0],[0.1,0.2,0],[0.9,0.2,0],[0.5,0,0],[0.995,0.63,0],[0.72,0.99,0],[0.5,1,0],[0.28,0.99,0]];shape=mxgraph.kubernetes.icon2;prIcon=node;movable=1;resizable=1;rotatable=1;deletable=1;editable=1;locked=0;connectable=1;" parent="LVv6-rukdr9kL_Ci66FN-55" vertex="1">
                    <mxGeometry x="30" y="133.75" width="37.76" height="36.25" as="geometry"/>
                </mxCell>
                <mxCell id="jZCDp3kxoupZj0aG2XI8-4" value="Backend SVC&lt;br&gt;(Python/Flask)" style="aspect=fixed;sketch=0;html=1;dashed=0;whitespace=wrap;verticalLabelPosition=bottom;verticalAlign=top;fillColor=#2875E2;strokeColor=#ffffff;points=[[0.005,0.63,0],[0.1,0.2,0],[0.9,0.2,0],[0.5,0,0],[0.995,0.63,0],[0.72,0.99,0],[0.5,1,0],[0.28,0.99,0]];shape=mxgraph.kubernetes.icon2;prIcon=node;movable=1;resizable=1;rotatable=1;deletable=1;editable=1;locked=0;connectable=1;" parent="LVv6-rukdr9kL_Ci66FN-55" vertex="1">
                    <mxGeometry x="140.00000000000006" y="738.5" width="40.62" height="39" as="geometry"/>
                </mxCell>
                <mxCell id="jZCDp3kxoupZj0aG2XI8-5" value="&lt;font color=&quot;#232f3e&quot;&gt;Frontend SVC&lt;br&gt;(React)&lt;/font&gt;" style="aspect=fixed;sketch=0;html=1;dashed=0;whitespace=wrap;verticalLabelPosition=bottom;verticalAlign=top;fillColor=#2875E2;strokeColor=#ffffff;points=[[0.005,0.63,0],[0.1,0.2,0],[0.9,0.2,0],[0.5,0,0],[0.995,0.63,0],[0.72,0.99,0],[0.5,1,0],[0.28,0.99,0]];shape=mxgraph.kubernetes.icon2;prIcon=node;movable=1;resizable=1;rotatable=1;deletable=1;editable=1;locked=0;connectable=1;" parent="LVv6-rukdr9kL_Ci66FN-55" vertex="1">
                    <mxGeometry x="30.000000000000057" y="743.75" width="40.62" height="39" as="geometry"/>
                </mxCell>
                <mxCell id="jZCDp3kxoupZj0aG2XI8-9" style="edgeStyle=orthogonalEdgeStyle;rounded=0;orthogonalLoop=1;jettySize=auto;html=1;entryX=0.005;entryY=0.63;entryDx=0;entryDy=0;entryPerimeter=0;movable=0;resizable=0;rotatable=0;deletable=0;editable=0;locked=1;connectable=0;" parent="LVv6-rukdr9kL_Ci66FN-55" source="LVv6-rukdr9kL_Ci66FN-25" target="LVv6-rukdr9kL_Ci66FN-27" edge="1">
                    <mxGeometry relative="1" as="geometry"/>
                </mxCell>
                <mxCell id="jZCDp3kxoupZj0aG2XI8-13" style="edgeStyle=orthogonalEdgeStyle;rounded=0;orthogonalLoop=1;jettySize=auto;html=1;entryX=0.005;entryY=0.63;entryDx=0;entryDy=0;entryPerimeter=0;movable=0;resizable=0;rotatable=0;deletable=0;editable=0;locked=1;connectable=0;" parent="LVv6-rukdr9kL_Ci66FN-55" source="jZCDp3kxoupZj0aG2XI8-5" target="jZCDp3kxoupZj0aG2XI8-4" edge="1">
                    <mxGeometry relative="1" as="geometry"/>
                </mxCell>
                <mxCell id="LVv6-rukdr9kL_Ci66FN-29" value="" style="rounded=1;arcSize=10;strokeColor=#000000;fillColor=none;gradientColor=none;strokeWidth=1;movable=1;resizable=1;rotatable=1;deletable=1;editable=1;locked=0;connectable=1;dashed=1;" parent="LVv6-rukdr9kL_Ci66FN-55" vertex="1">
                    <mxGeometry x="110" y="108.5" width="110" height="120" as="geometry"/>
                </mxCell>
                <mxCell id="29" value="Pod SG" style="image;aspect=fixed;html=1;points=[];align=center;fontSize=12;image=img/lib/azure2/security/Application_Security_Groups.svg;" vertex="1" parent="LVv6-rukdr9kL_Ci66FN-55">
                    <mxGeometry x="110" y="102.01" width="31.29" height="37.99" as="geometry"/>
                </mxCell>
                <mxCell id="30" value="Pod SG" style="image;aspect=fixed;html=1;points=[];align=center;fontSize=12;image=img/lib/azure2/security/Application_Security_Groups.svg;" vertex="1" parent="LVv6-rukdr9kL_Ci66FN-55">
                    <mxGeometry x="120" y="700.51" width="31.29" height="37.99" as="geometry"/>
                </mxCell>
                <mxCell id="32" value="" style="rounded=1;arcSize=10;strokeColor=#000000;fillColor=none;gradientColor=none;strokeWidth=1;movable=1;resizable=1;rotatable=1;deletable=1;editable=1;locked=0;connectable=1;dashed=1;" vertex="1" parent="LVv6-rukdr9kL_Ci66FN-55">
                    <mxGeometry x="98" y="692.01" width="110" height="120" as="geometry"/>
                </mxCell>
                <mxCell id="Sw0wEQEiZSazHrTpmJdk-6" value="Amazon RDS&lt;br&gt;(PostgreSQL)&lt;br&gt;Multi AZ StandBy" style="sketch=0;points=[[0,0,0],[0.25,0,0],[0.5,0,0],[0.75,0,0],[1,0,0],[0,1,0],[0.25,1,0],[0.5,1,0],[0.75,1,0],[1,1,0],[0,0.25,0],[0,0.5,0],[0,0.75,0],[1,0.25,0],[1,0.5,0],[1,0.75,0]];outlineConnect=0;fontColor=#232F3E;fillColor=#C925D1;strokeColor=#ffffff;dashed=0;verticalLabelPosition=bottom;verticalAlign=top;align=center;html=1;fontSize=12;fontStyle=0;aspect=fixed;shape=mxgraph.aws4.resourceIcon;resIcon=mxgraph.aws4.rds;movable=1;resizable=1;rotatable=1;deletable=1;editable=1;locked=0;connectable=1;" parent="1" vertex="1">
                    <mxGeometry x="1232.5" y="-88.75999999999999" width="49.5" height="49.5" as="geometry"/>
                </mxCell>
                <mxCell id="jZCDp3kxoupZj0aG2XI8-12" style="edgeStyle=orthogonalEdgeStyle;rounded=0;orthogonalLoop=1;jettySize=auto;html=1;movable=0;resizable=0;rotatable=0;deletable=0;editable=0;locked=1;connectable=0;" parent="1" source="jZCDp3kxoupZj0aG2XI8-4" target="Sw0wEQEiZSazHrTpmJdk-6" edge="1">
                    <mxGeometry relative="1" as="geometry"/>
                </mxCell>
                <mxCell id="33" value="RDS SG&lt;br&gt;access from&lt;div&gt;Pod SG&lt;/div&gt;" style="image;aspect=fixed;html=1;points=[];align=center;fontSize=12;image=img/lib/azure2/security/Application_Security_Groups.svg;" vertex="1" parent="1">
                    <mxGeometry x="1180" y="-650" width="31.29" height="37.99" as="geometry"/>
                </mxCell>
                <mxCell id="34" value="RDS SG&lt;br&gt;access from&lt;div&gt;Pod SG&lt;/div&gt;" style="image;aspect=fixed;html=1;points=[];align=center;fontSize=12;image=img/lib/azure2/security/Application_Security_Groups.svg;" vertex="1" parent="1">
                    <mxGeometry x="1201.21" y="-170" width="31.29" height="37.99" as="geometry"/>
                </mxCell>
                <mxCell id="36" value="" style="group" vertex="1" connectable="0" parent="1">
                    <mxGeometry x="492.36" y="-413.51" width="122" height="88.25999999999999" as="geometry"/>
                </mxCell>
                <mxCell id="ue1RAT0j10rb1X5RN0Ns-1" value="ALB" style="outlineConnect=0;dashed=0;verticalLabelPosition=bottom;verticalAlign=top;align=center;html=1;shape=mxgraph.aws3.classic_load_balancer;fillColor=#F58534;gradientColor=none;movable=1;resizable=1;rotatable=1;deletable=1;editable=1;locked=0;connectable=1;" parent="36" vertex="1">
                    <mxGeometry x="62" width="60" height="68.68" as="geometry"/>
                </mxCell>
                <mxCell id="10" value="ALB SG" style="image;aspect=fixed;html=1;points=[];align=center;fontSize=12;image=img/lib/azure2/security/Application_Security_Groups.svg;" vertex="1" parent="36">
                    <mxGeometry y="48.19" width="33" height="40.07" as="geometry"/>
                </mxCell>
                <mxCell id="38" style="edgeStyle=orthogonalEdgeStyle;rounded=0;orthogonalLoop=1;jettySize=auto;html=1;movable=1;resizable=1;rotatable=1;deletable=1;editable=1;locked=0;connectable=1;entryX=0;entryY=1;entryDx=0;entryDy=0;entryPerimeter=0;" edge="1" parent="1" source="LVv6-rukdr9kL_Ci66FN-29" target="37">
                    <mxGeometry relative="1" as="geometry">
                        <mxPoint x="1023" y="-664" as="sourcePoint"/>
                        <mxPoint x="1242" y="-665" as="targetPoint"/>
                        <Array as="points">
                            <mxPoint x="1023" y="-730"/>
                            <mxPoint x="1232" y="-730"/>
                        </Array>
                    </mxGeometry>
                </mxCell>
                <mxCell id="39" value="READ ACCESS" style="edgeLabel;html=1;align=center;verticalAlign=middle;resizable=0;points=[];" vertex="1" connectable="0" parent="38">
                    <mxGeometry x="-0.139" relative="1" as="geometry">
                        <mxPoint as="offset"/>
                    </mxGeometry>
                </mxCell>
                <mxCell id="42" value="ACM" style="sketch=0;points=[[0,0,0],[0.25,0,0],[0.5,0,0],[0.75,0,0],[1,0,0],[0,1,0],[0.25,1,0],[0.5,1,0],[0.75,1,0],[1,1,0],[0,0.25,0],[0,0.5,0],[0,0.75,0],[1,0.25,0],[1,0.5,0],[1,0.75,0]];outlineConnect=0;fontColor=#232F3E;fillColor=#DD344C;strokeColor=#ffffff;dashed=0;verticalLabelPosition=bottom;verticalAlign=top;align=center;html=1;fontSize=12;fontStyle=0;aspect=fixed;shape=mxgraph.aws4.resourceIcon;resIcon=mxgraph.aws4.certificate_manager_3;" vertex="1" parent="1">
                    <mxGeometry x="-558" y="-877" width="78" height="78" as="geometry"/>
                </mxCell>
                <mxCell id="48" value="" style="group" vertex="1" connectable="0" parent="1">
                    <mxGeometry x="-810" y="-180" width="550" height="180" as="geometry"/>
                </mxCell>
                <mxCell id="40" value="Guardduty" style="sketch=0;points=[[0,0,0],[0.25,0,0],[0.5,0,0],[0.75,0,0],[1,0,0],[0,1,0],[0.25,1,0],[0.5,1,0],[0.75,1,0],[1,1,0],[0,0.25,0],[0,0.5,0],[0,0.75,0],[1,0.25,0],[1,0.5,0],[1,0.75,0]];outlineConnect=0;fontColor=#232F3E;fillColor=#DD344C;strokeColor=#ffffff;dashed=0;verticalLabelPosition=bottom;verticalAlign=top;align=center;html=1;fontSize=12;fontStyle=0;aspect=fixed;shape=mxgraph.aws4.resourceIcon;resIcon=mxgraph.aws4.guardduty;" vertex="1" parent="48">
                    <mxGeometry x="300" y="25" width="78" height="78" as="geometry"/>
                </mxCell>
                <mxCell id="41" value="Inspector" style="sketch=0;points=[[0,0,0],[0.25,0,0],[0.5,0,0],[0.75,0,0],[1,0,0],[0,1,0],[0.25,1,0],[0.5,1,0],[0.75,1,0],[1,1,0],[0,0.25,0],[0,0.5,0],[0,0.75,0],[1,0.25,0],[1,0.5,0],[1,0.75,0]];outlineConnect=0;fontColor=#232F3E;fillColor=#DD344C;strokeColor=#ffffff;dashed=0;verticalLabelPosition=bottom;verticalAlign=top;align=center;html=1;fontSize=12;fontStyle=0;aspect=fixed;shape=mxgraph.aws4.resourceIcon;resIcon=mxgraph.aws4.inspector;" vertex="1" parent="48">
                    <mxGeometry x="440" y="25" width="78" height="78" as="geometry"/>
                </mxCell>
                <mxCell id="43" value="Security Hub" style="sketch=0;points=[[0,0,0],[0.25,0,0],[0.5,0,0],[0.75,0,0],[1,0,0],[0,1,0],[0.25,1,0],[0.5,1,0],[0.75,1,0],[1,1,0],[0,0.25,0],[0,0.5,0],[0,0.75,0],[1,0.25,0],[1,0.5,0],[1,0.75,0]];outlineConnect=0;fontColor=#232F3E;fillColor=#DD344C;strokeColor=#ffffff;dashed=0;verticalLabelPosition=bottom;verticalAlign=top;align=center;html=1;fontSize=12;fontStyle=0;aspect=fixed;shape=mxgraph.aws4.resourceIcon;resIcon=mxgraph.aws4.security_hub;" vertex="1" parent="48">
                    <mxGeometry x="174" y="25" width="78" height="78" as="geometry"/>
                </mxCell>
                <mxCell id="46" value="" style="swimlane;startSize=0;" vertex="1" parent="48">
                    <mxGeometry width="550" height="180" as="geometry"/>
                </mxCell>
                <mxCell id="47" value="Optional&amp;nbsp;&lt;br&gt;Security Services" style="text;html=1;align=center;verticalAlign=middle;resizable=0;points=[];autosize=1;strokeColor=none;fillColor=none;" vertex="1" parent="46">
                    <mxGeometry y="10" width="120" height="40" as="geometry"/>
                </mxCell>
                <mxCell id="50" value="" style="endArrow=classic;html=1;" edge="1" parent="1">
                    <mxGeometry relative="1" as="geometry">
                        <mxPoint x="450" y="-120" as="sourcePoint"/>
                        <mxPoint x="610" y="-120" as="targetPoint"/>
                    </mxGeometry>
                </mxCell>
                <mxCell id="51" value="Label" style="edgeLabel;resizable=0;html=1;;align=center;verticalAlign=middle;" connectable="0" vertex="1" parent="50">
                    <mxGeometry relative="1" as="geometry"/>
                </mxCell>
                <mxCell id="52" value="Source" style="edgeLabel;resizable=0;html=1;;align=left;verticalAlign=bottom;" connectable="0" vertex="1" parent="50">
                    <mxGeometry x="-1" relative="1" as="geometry"/>
                </mxCell>
                <mxCell id="53" value="" style="endArrow=classic;html=1;" edge="1" parent="1" source="jZCDp3kxoupZj0aG2XI8-30" target="ue1RAT0j10rb1X5RN0Ns-1">
                    <mxGeometry relative="1" as="geometry">
                        <mxPoint x="480" y="-120" as="sourcePoint"/>
                        <mxPoint x="580" y="-120" as="targetPoint"/>
                    </mxGeometry>
                </mxCell>
                <mxCell id="54" value="Label" style="edgeLabel;resizable=0;html=1;;align=center;verticalAlign=middle;" connectable="0" vertex="1" parent="53">
                    <mxGeometry relative="1" as="geometry"/>
                </mxCell>
                <mxCell id="55" value="From Cloudfront" style="edgeLabel;html=1;align=center;verticalAlign=middle;resizable=0;points=[];" vertex="1" connectable="0" parent="53">
                    <mxGeometry x="-0.001" relative="1" as="geometry">
                        <mxPoint x="-1" as="offset"/>
                    </mxGeometry>
                </mxCell>
            </root>
        </mxGraphModel>
    </diagram>
</mxfile>